<svg width="20" height="20" viewBox="0 0 20 20" fill="none" xmlns="http://www.w3.org/2000/svg">
<path d="M1.6665 7.49984C1.6665 5.92817 1.6665 5.14317 2.15484 4.65484C2.64317 4.1665 3.42817 4.1665 4.99984 4.1665H14.9998C16.5715 4.1665 17.3565 4.1665 17.8448 4.65484C18.3332 5.14317 18.3332 5.92817 18.3332 7.49984C18.3332 7.89234 18.3332 8.089 18.2115 8.2115C18.089 8.33317 17.8915 8.33317 17.4998 8.33317H2.49984C2.10734 8.33317 1.91067 8.33317 1.78817 8.2115C1.6665 8.089 1.6665 7.8915 1.6665 7.49984ZM1.6665 14.9998C1.6665 16.5715 1.6665 17.3565 2.15484 17.8448C2.64317 18.3332 3.42817 18.3332 4.99984 18.3332H14.9998C16.5715 18.3332 17.3565 18.3332 17.8448 17.8448C18.3332 17.3565 18.3332 16.5715 18.3332 14.9998V10.8332C18.3332 10.4407 18.3332 10.244 18.2115 10.1215C18.089 9.99984 17.8915 9.99984 17.4998 9.99984H2.49984C2.10734 9.99984 1.91067 9.99984 1.78817 10.1215C1.6665 10.244 1.6665 10.4415 1.6665 10.8332V14.9998Z" fill="#4D4D4D"/>
<path d="M5.83301 2.5V5M14.1663 2.5V5" stroke="#4D4D4D" stroke-width="1.16667" stroke-linecap="round"/>
</svg>
