<svg width="54" height="54" viewBox="0 0 54 54" fill="none" xmlns="http://www.w3.org/2000/svg">
<rect width="54" height="54" rx="8" fill="white"/>
<path d="M11.5449 21.5906C11.5449 18.6758 11.5449 17.22 12.4506 16.3143C13.3562 15.4087 14.8121 15.4087 17.7269 15.4087H36.2727C39.1874 15.4087 40.6433 15.4087 41.5489 16.3143C42.4546 17.22 42.4546 18.6758 42.4546 21.5906C42.4546 22.3185 42.4546 22.6833 42.2289 22.9105C42.0018 23.1361 41.6355 23.1361 40.9091 23.1361H13.0904C12.3625 23.1361 11.9977 23.1361 11.7706 22.9105C11.5449 22.6833 11.5449 22.317 11.5449 21.5906ZM11.5449 35.5C11.5449 38.4148 11.5449 39.8706 12.4506 40.7763C13.3562 41.6819 14.8121 41.6819 17.7269 41.6819H36.2727C39.1874 41.6819 40.6433 41.6819 41.5489 40.7763C42.4546 39.8706 42.4546 38.4148 42.4546 35.5V27.7726C42.4546 27.0446 42.4546 26.6799 42.2289 26.4527C42.0018 26.2271 41.6355 26.2271 40.9091 26.2271H13.0904C12.3625 26.2271 11.9977 26.2271 11.7706 26.4527C11.5449 26.6799 11.5449 27.0462 11.5449 27.7726V35.5Z" fill="#3A5F7D"/>
<path d="M19.2725 12.3179V16.9543M34.7273 12.3179V16.9543" stroke="#3A5F7D" stroke-width="4.5" stroke-linecap="round"/>
</svg>
