<svg width="54" height="54" viewBox="0 0 54 54" fill="none" xmlns="http://www.w3.org/2000/svg">
<rect width="54" height="54" rx="8" fill="white"/>
<path d="M40.2658 21.5954H13.7342C13.3433 21.5954 12.9684 21.4401 12.692 21.1637C12.4155 20.8873 12.2603 20.5124 12.2603 20.1214C12.2603 19.7305 12.4155 19.3556 12.692 19.0792C12.9684 18.8028 13.3433 18.6475 13.7342 18.6475H40.2658C40.6567 18.6475 41.0317 18.8028 41.3081 19.0792C41.5845 19.3556 41.7398 19.7305 41.7398 20.1214C41.7398 20.5124 41.5845 20.8873 41.3081 21.1637C41.0317 21.4401 40.6567 21.5954 40.2658 21.5954ZM35.3526 28.474H18.6475C18.2566 28.474 17.8817 28.3187 17.6052 28.0423C17.3288 27.7658 17.1735 27.3909 17.1735 27C17.1735 26.6091 17.3288 26.2342 17.6052 25.9577C17.8817 25.6813 18.2566 25.526 18.6475 25.526H35.3526C35.7435 25.526 36.1184 25.6813 36.3948 25.9577C36.6713 26.2342 36.8265 26.6091 36.8265 27C36.8265 27.3909 36.6713 27.7658 36.3948 28.0423C36.1184 28.3187 35.7435 28.474 35.3526 28.474ZM29.4567 35.3525H24.5434C24.1525 35.3525 23.7776 35.1972 23.5011 34.9208C23.2247 34.6444 23.0694 34.2695 23.0694 33.8786C23.0694 33.4876 23.2247 33.1127 23.5011 32.8363C23.7776 32.5599 24.1525 32.4046 24.5434 32.4046H29.4567C29.8476 32.4046 30.2225 32.5599 30.4989 32.8363C30.7753 33.1127 30.9306 33.4876 30.9306 33.8786C30.9306 34.2695 30.7753 34.6444 30.4989 34.9208C30.2225 35.1972 29.8476 35.3525 29.4567 35.3525Z" fill="#3A5F7D"/>
</svg>
