<svg width="54" height="54" viewBox="0 0 54 54" fill="none" xmlns="http://www.w3.org/2000/svg">
<rect width="54" height="54" rx="8" fill="white"/>
<path d="M26.5 14C25.3065 14 24.1619 14.4931 23.318 15.3707C22.4741 16.2484 22 17.4388 22 18.68V27.32C22 28.5612 22.4741 29.7516 23.318 30.6293C24.1619 31.5069 25.3065 32 26.5 32C27.6935 32 28.8381 31.5069 29.682 30.6293C30.5259 29.7516 31 28.5612 31 27.32V18.68C31 17.4388 30.5259 16.2484 29.682 15.3707C28.8381 14.4931 27.6935 14 26.5 14Z" fill="#3A5F7D"/>
<path d="M20.2174 27.1667C20.2174 26.8572 20.1006 26.5605 19.8927 26.3417C19.6847 26.1229 19.4027 26 19.1087 26C18.8147 26 18.5327 26.1229 18.3247 26.3417C18.1168 26.5605 18 26.8572 18 27.1667C18 29.3368 18.7497 31.433 20.1096 33.0646C21.4694 34.6961 23.3466 35.7518 25.3913 36.0349V37.6667H22.0652C21.7712 37.6667 21.4892 37.7896 21.2813 38.0084C21.0733 38.2272 20.9565 38.5239 20.9565 38.8333C20.9565 39.1428 21.0733 39.4395 21.2813 39.6583C21.4892 39.8771 21.7712 40 22.0652 40H30.9348C31.2288 40 31.5108 39.8771 31.7187 39.6583C31.9267 39.4395 32.0435 39.1428 32.0435 38.8333C32.0435 38.5239 31.9267 38.2272 31.7187 38.0084C31.5108 37.7896 31.2288 37.6667 30.9348 37.6667H27.6087V36.0349C29.6534 35.7518 31.5306 34.6961 32.8904 33.0646C34.2503 31.433 35 29.3368 35 27.1667C35 26.8572 34.8832 26.5605 34.6753 26.3417C34.4674 26.1229 34.1853 26 33.8913 26C33.5973 26 33.3153 26.1229 33.1073 26.3417C32.8994 26.5605 32.7826 26.8572 32.7826 27.1667C32.7826 28.92 32.1207 30.6016 30.9425 31.8414C29.7643 33.0813 28.1663 33.7778 26.5 33.7778C24.8337 33.7778 23.2357 33.0813 22.0575 31.8414C20.8793 30.6016 20.2174 28.92 20.2174 27.1667Z" fill="#3A5F7D"/>
</svg>
