<svg width="54" height="54" viewBox="0 0 54 54" fill="none" xmlns="http://www.w3.org/2000/svg">
<rect width="54" height="54" rx="8" fill="white"/>
<path d="M22.4393 12.75C21.8353 12.7521 21.2567 12.993 20.8296 13.42C20.4026 13.8471 20.1617 14.4257 20.1596 15.0297V28.7104C20.1596 29.5537 20.6291 30.2839 21.3141 30.6789C21.6479 30.8704 22.0297 30.9901 22.4393 30.9901H40.6808C41.2847 30.988 41.8634 30.7472 42.2904 30.3201C42.7175 29.893 42.9583 29.3144 42.9604 28.7104V15.0297C42.9583 14.4257 42.7175 13.8471 42.2904 13.42C41.8634 12.993 41.2847 12.7521 40.6808 12.75H22.4393ZM13.3192 28.7104C12.7153 28.7126 12.1366 28.9534 11.7096 29.3805C11.2825 29.8075 11.0417 30.3862 11.0396 30.9901V38.9704C11.0417 39.5743 11.2825 40.1529 11.7096 40.58C12.1366 41.0071 12.7153 41.2479 13.3192 41.25H24.7203C25.1178 41.2466 25.5074 41.1397 25.851 40.9398C26.1945 40.7399 26.4801 40.454 26.6795 40.1102C26.8763 39.7737 27 39.3867 27 38.9704V33.2698H22.4393C22.0456 33.2698 21.6652 33.214 21.2995 33.1182C20.3232 32.8633 19.4587 32.2929 18.8402 31.4958C18.2218 30.6986 17.8842 29.7194 17.8799 28.7104H13.3192ZM37.2599 33.2698H29.2797V38.9704H34.9802C35.5842 38.9683 36.1628 38.7274 36.5899 38.3003C37.017 37.8733 37.2578 37.2946 37.2599 36.6907V33.2698Z" fill="#3A5F7D"/>
</svg>
